PathFileType	4	(X/Y/Z)	C:/Users/opensim2020/Desktop/walking_exp_matlab/subject02_walking16_run.trc																																																																																																																																																							
DataRate	CameraRate	NumFrames	NumMarkers	Units	OrigDataRate	OrigDataStartFrame	OrigNumFrames																																																																																																																																																			
100	100	6	51	mm	100	168	124																																																																																																																																																			
Frame#	Time	RTOE			LSHO			LELB			RELB			RFIN			LTHI			LKNE			RWRB			RUPA			LTIB			RASI			LANK			LTOE			RSHO			RWRA			RFRM			LASI			STRN			LFHD			RTHI			RFHD			LWRB			LFIN			LUPA			RKNE			RBHD			LFRM			C7			LWRA			RTIB			CLAV			LHEE			RANK			LBHD			RBAK			RHEE			T10			LPSI			RPSI			*39			*40			*41			*42			*43			*44			*45			*46			*47			*48			*49			*50		
		X1	Y1	Z1	X2	Y2	Z2	X3	Y3	Z3	X4	Y4	Z4	X5	Y5	Z5	X6	Y6	Z6	X7	Y7	Z7	X8	Y8	Z8	X9	Y9	Z9	X10	Y10	Z10	X11	Y11	Z11	X12	Y12	Z12	X13	Y13	Z13	X14	Y14	Z14	X15	Y15	Z15	X16	Y16	Z16	X17	Y17	Z17	X18	Y18	Z18	X19	Y19	Z19	X20	Y20	Z20	X21	Y21	Z21	X22	Y22	Z22	X23	Y23	Z23	X24	Y24	Z24	X25	Y25	Z25	X26	Y26	Z26	X27	Y27	Z27	X28	Y28	Z28	X29	Y29	Z29	X30	Y30	Z30	X31	Y31	Z31	X32	Y32	Z32	X33	Y33	Z33	X34	Y34	Z34	X35	Y35	Z35	X36	Y36	Z36	X37	Y37	Z37	X38	Y38	Z38	X39	Y39	Z39	X40	Y40	Z40	X41	Y41	Z41	X42	Y42	Z42	X43	Y43	Z43	X44	Y44	Z44	X45	Y45	Z45	X46	Y46	Z46	X47	Y47	Z47	X48	Y48	Z48	X49	Y49	Z49	X50	Y50	Z50	X51	Y51	Z51
																																																																																																																																																										
16	0.15	-2012.23511	24.59947	39.37943	-1588.05591	1457.33936	-175.44269	-1654.2804	1344.40625	-476.06006	-1542.9126	1160.23206	319.49277	-1305.04968	1203.2428	143.83464	-1556.86499	686.72083	-173.31966	-1476.40259	521.79791	-130.60089	-1338.26904	1153.3894	178.39278	-1591.54724	1293.79883	280.63913	-1579.99744	379.73199	-161.82629	-1673.0011	914.84253	138.71188	-1683.99524	175.53479	-152.50809	-1568.27112	76.05046	-131.31551	-1587.13	1453.73145	159.07454	-1369.84753	1191.16003	150.50456	-1438.76367	1157.53186	252.75549	-1613.69287	942.28387	-117.41944	-1530.4751	1207.07104	-2.44456	-1527.95813	1688.78162	-98.53367	-1840.64392	638.26379	152.85989	-1524.91772	1683.98694	46.55668	-1647.13977	1088.4939	-560.16278	-1635.75354	1019.59271	-557.3587	-1633.70544	1407.70117	-349.74789	-1886.48071	431.89316	103.62779	-1646.23926	1575.25244	43.39159	-1648.52563	1212.70471	-532.55371	-1663.90442	1477.70935	-18.20724	-1634.16174	1077.32678	-504.80145	-2011.13501	290.27878	78.47704	-1529.21094	1390.63574	-20.18937	-1740.50195	164.14938	-112.00506	-2120.66187	140.15588	18.97377	-1637.65344	1584.83435	-99.40537	-1753.60388	1341.08667	54.72673	-2164.80786	114.38844	-46.69189	-1782.11389	1242.24329	-9.24061	-1823.75684	1018.42072	-68.95081	-1843.15527	1015.73413	40.18513	NaN	NaN	NaN	2845.84424	1034.56946	-3357.32715	NaN	NaN	NaN	NaN	NaN	NaN	NaN	NaN	NaN	NaN	NaN	NaN	NaN	NaN	NaN	NaN	NaN	NaN	NaN	NaN	NaN	NaN	NaN	NaN	-1644.03601	1734.63391	-13.6904	NaN	NaN	NaN
17	0.16	-2009.80505	24.76256	41.07983	-1555.66846	1464.64734	-176.94173	-1627.72766	1352.24365	-474.215	-1500.61084	1173.70593	321.36935	-1270.75757	1223.96313	135.75293	-1515.39941	699.27826	-171.22498	-1438.53796	530.07971	-130.04126	-1301.65112	1173.08228	171.04593	-1546.83069	1306.41174	280.35406	-1524.7179	371.67859	-161.97273	-1631.76025	922.37708	140.20537	-1602.71082	156.37982	-148.15721	-1475.39075	72.17049	-123.26868	-1547.03308	1463.58081	155.70297	-1334.75964	1210.82471	145.57483	-1398.71204	1173.92078	249.73959	-1575.5321	953.37793	-114.08228	-1493.82202	1215.82239	-4.48021	-1490.81445	1696.41309	-101.69656	-1806.90088	647.06793	155.45811	-1487.69531	1691.59534	43.72217	-1622.56787	1093.50391	-550.79993	-1607.56067	1025.29431	-546.20068	-1603.7406	1415.63293	-348.72705	-1864.89087	445.60425	106.35395	-1609.51233	1583.31396	40.27942	-1623.20117	1219.00977	-527.013	-1627.72595	1485.64185	-18.58169	-1604.69116	1085.16101	-495.85004	-1993.46924	307.03009	83.2569	-1493.03577	1399.28442	-22.96016	-1657.54932	139.39534	-107.14525	-2104.62427	158.15698	25.94213	-1600.40588	1592.56738	-102.50936	-1715.29846	1349.33032	58.08872	-2147.04834	136.29277	-39.33925	-1745.50415	1249.7627	-4.7313	-1786.85352	1025.79529	-65.10641	-1803.104	1022.84857	47.07365	NaN	NaN	NaN	2845.93481	1034.74658	-3357.25806	NaN	NaN	NaN	NaN	NaN	NaN	NaN	NaN	NaN	NaN	NaN	NaN	NaN	NaN	NaN	NaN	NaN	NaN	NaN	NaN	NaN	NaN	NaN	NaN	-1606.58081	1742.36914	-17.13507	NaN	NaN	NaN
18	0.17	-2007.56799	24.33245	41.96713	-1522.48267	1471.45093	-178.23483	-1600.90076	1357.23315	-471.70322	-1461.52991	1185.37341	323.2919	-1239.34045	1241.02966	128.44296	-1474.93494	710.45874	-168.40335	-1403.38208	534.36957	-130.83311	-1268.01501	1189.12866	164.54221	-1505.36255	1317.46338	280.38385	-1471.28442	362.20285	-161.96037	-1589.87427	930.53564	141.29779	-1521.54224	139.25369	-143.36035	-1384.7605	72.03851	-115.22919	-1507.21899	1472.61963	152.67863	-1303.54492	1225.57764	139.40114	-1361.75928	1187.52759	247.21371	-1537.3075	964.07458	-110.57052	-1457.11548	1224.05652	-6.04345	-1452.88623	1703.27625	-104.07924	-1771.51929	655.72058	158.54877	-1450.75378	1698.82813	41.17598	-1595.38147	1095.34521	-538.86084	-1577.91772	1028.50989	-532.93732	-1572.98047	1422.05542	-347.67181	-1839.02832	459.39059	108.97494	-1572.80249	1591.14673	37.51133	-1596.86609	1222.06335	-520.21661	-1591.37219	1493.48657	-18.91727	-1573.97192	1090.17505	-484.94122	-1971.23718	323.7775	88.69232	-1457.35889	1407.9967	-25.49347	-1574.26648	117.45697	-102.14751	-2083.229	174.90463	33.53994	-1563.26831	1600.23657	-105.33542	-1676.94543	1357.08777	61.20574	-2123.3252	158.68257	-32.15784	-1708.72192	1256.6825	-0.82071	-1748.98181	1033.91577	-62.0177	-1762.8905	1030.58276	52.65644	NaN	NaN	NaN	2845.99414	1034.54785	-3357.14404	NaN	NaN	NaN	NaN	NaN	NaN	NaN	NaN	NaN	NaN	NaN	NaN	NaN	NaN	NaN	NaN	NaN	NaN	NaN	NaN	NaN	NaN	NaN	NaN	-1569.06982	1750.29834	-20.38138	NaN	NaN	NaN
19	0.18	-2004.21631	27.17092	43.21827	-1488.14587	1477.54175	-179.49286	-1574.43066	1359.19031	-469.41336	-1425.35266	1194.96252	324.92157	-1210.33411	1253.72876	121.92721	-1438.12061	717.09979	-164.30986	-1369.75781	535.32953	-131.9673	-1236.32983	1201.06335	159.35576	-1467.62305	1326.95056	279.80432	-1419.57104	352.18961	-160.76233	-1547.74744	938.73193	142.15958	-1442.51953	125.10818	-137.45901	-1298.58948	74.99982	-106.08247	-1467.3717	1480.25061	150.13397	-1273.33984	1237.25305	135.79704	-1327.12146	1198.25342	245.45914	-1499.03796	974.01306	-106.91283	-1419.82532	1232.11462	-7.73992	-1415.29919	1709.89575	-106.47987	-1735.51855	664.61951	162.20792	-1413.6676	1705.63562	38.85518	-1566.07153	1094.55115	-524.86462	-1546.47949	1028.9989	-517.50055	-1541.39099	1426.60693	-346.92117	-1809.54126	472.60907	109.84422	-1536.33423	1598.97656	35.03125	-1570.23926	1222.60571	-512.41669	-1554.92554	1500.88843	-19.29468	-1541.64258	1092.79138	-472.10104	-1944.43298	339.69809	93.88003	-1422.98743	1416.19299	-28.30845	-1493.57239	100.01636	-96.67384	-2057.65869	189.0031	43.64901	-1526.39233	1607.74744	-107.89317	-1638.66516	1364.4325	64.21849	-2094.79907	181.36696	-23.69323	-1671.54407	1262.87354	2.76462	-1709.8877	1041.85962	-59.24805	-1722.15002	1038.24829	56.19641	NaN	NaN	NaN	2845.9231	1034.50012	-3357.26221	NaN	NaN	NaN	NaN	NaN	NaN	NaN	NaN	NaN	NaN	NaN	NaN	NaN	NaN	NaN	NaN	NaN	NaN	NaN	NaN	NaN	NaN	NaN	NaN	-1531.24048	1757.97241	-23.31951	NaN	NaN	NaN
20	0.19	-1987.6593	40.56518	46.14453	-1452.84192	1482.68018	-180.71263	-1547.40918	1357.54736	-466.78555	-1391.48633	1202.10938	326.13501	-1181.96948	1261.90259	117.25771	-1407.02112	719.65771	-160.98111	-1338.43811	533.21851	-134.14577	-1207.3418	1207.72461	154.04265	-1432.77747	1335.27551	278.97644	-1370.37695	342.98795	-158.91943	-1505.38123	946.63965	143.44247	-1367.07434	115.59715	-131.40273	-1218.70984	81.75658	-97.59693	-1428.03625	1486.46692	147.84718	-1244.36316	1244.86536	132.50172	-1295.92102	1204.40771	243.61063	-1459.99976	983.27185	-103.31931	-1382.29211	1239.41345	-9.03086	-1377.57983	1715.52478	-108.48783	-1699.11462	673.87219	165.91264	-1376.28918	1711.44934	36.92352	-1534.86731	1091.14709	-509.09042	-1511.00916	1026.62561	-498.44388	-1508.35266	1428.15955	-346.32626	-1776.20044	483.41016	112.69186	-1500.59448	1606.17261	32.86116	-1541.46021	1219.1134	-503.61887	-1518.63696	1507.64441	-19.80568	-1506.54163	1092.34827	-458.11826	-1912.83325	354.28809	96.84537	-1387.73975	1423.49707	-30.99186	-1413.65759	86.12538	-90.17699	-2031.1239	204.7684	51.35858	-1489.65649	1614.72791	-110.09428	-1600.66797	1371.44702	67.16216	-2070.51953	202.52531	-13.12817	-1634.08911	1268.22974	6.20104	-1670.26233	1049.2179	-56.88432	-1681.78613	1045.91431	58.76001	NaN	NaN	NaN	2845.97681	1034.30579	-3357.19043	NaN	NaN	NaN	NaN	NaN	NaN	NaN	NaN	NaN	NaN	NaN	NaN	NaN	NaN	NaN	NaN	NaN	NaN	NaN	NaN	NaN	NaN	NaN	NaN	-1493.09631	1765.22522	-25.86995	NaN	NaN	NaN
21	0.2	-1963.34631	57.67844	51.05319	-1416.71802	1486.4397	-181.98344	-1520.33691	1352.78394	-463.85934	-1359.60852	1207.20154	326.9895	-1154.46082	1264.79675	112.83312	-1375.58777	721.31653	-161.67732	-1309.43164	528.96759	-135.86073	-1178.93286	1210.80566	150.34451	-1400.27014	1342.2052	278.4946	-1327.82654	336.49527	-155.52692	-1463.14612	953.98053	144.07097	-1298.27612	110.80947	-124.78543	-1146.33154	91.89692	-90.25035	-1389.44116	1491.58826	145.85959	-1216.02698	1248.66431	129.98004	-1265.59839	1208.15588	242.44574	-1421.32031	990.92566	-100.48251	-1344.53259	1246.04797	-10.47935	-1339.39307	1720.10144	-109.86475	-1662.17456	682.68695	169.51839	-1338.77966	1716.16748	35.35816	-1499.85815	1084.72827	-491.16678	-1473.40991	1022.54315	-478.8837	-1475.17407	1427.98096	-346.81723	-1737.5697	490.63361	117.67719	-1464.52405	1612.61511	30.92297	-1510.87744	1212.2644	-492.66833	-1482.22815	1513.48669	-20.40344	-1470.94055	1090.36963	-441.24771	-1879.16748	366.87201	101.16943	-1351.27722	1429.71069	-33.53193	-1340.80188	77.8101	-82.49197	-2004.38062	222.47624	53.33348	-1452.97485	1621.0426	-111.94183	-1562.651	1377.7782	69.7644	-2045.73254	219.31668	-9.90633	-1596.59631	1272.71753	9.50796	-1630.5896	1055.77246	-55.0966	-1641.70837	1053.39526	60.49761	NaN	NaN	NaN	2845.39673	1034.00293	-3360.41895	NaN	NaN	NaN	NaN	NaN	NaN	NaN	NaN	NaN	NaN	NaN	NaN	NaN	NaN	NaN	NaN	NaN	NaN	NaN	NaN	NaN	NaN	NaN	NaN	-1454.53088	1771.70972	-28.00388	NaN	NaN	NaN
